<svg xmlns="http://www.w3.org/2000/svg" width="1920" height="1080" viewBox="0 0 1920 1080">
  <defs>
    <linearGradient id="bg2" x1="0%" y1="0%" x2="100%" y2="100%">
      <stop offset="0%" style="stop-color:#1a237e;stop-opacity:1" />
      <stop offset="50%" style="stop-color:#283593;stop-opacity:1" />
      <stop offset="100%" style="stop-color:#0d47a1;stop-opacity:1" />
    </linearGradient>
    <linearGradient id="accent2" x1="0%" y1="0%" x2="100%" y2="0%">
      <stop offset="0%" style="stop-color:#42a5f5" />
      <stop offset="100%" style="stop-color:#80d8ff" />
    </linearGradient>
  </defs>
  <rect width="1920" height="1080" fill="url(#bg2)"/>
  <circle cx="300" cy="200" r="250" fill="rgba(66,165,245,0.06)"/>
  <circle cx="1600" cy="900" r="350" fill="rgba(66,165,245,0.04)"/>
  <!-- Heart + Cross -->
  <g transform="translate(860, 300)">
    <path d="M100 30 C60-10 0 0 0 50 C0 110 100 170 100 170 C100 170 200 110 200 50 C200 0 140-10 100 30" fill="rgba(239,83,80,0.3)" stroke="rgba(239,83,80,0.5)" stroke-width="2"/>
    <rect x="75" y="65" width="50" height="15" rx="3" fill="white" opacity="0.8"/>
    <rect x="92.5" y="47.5" width="15" height="50" rx="3" fill="white" opacity="0.8"/>
  </g>
  <text x="960" y="560" text-anchor="middle" font-family="Arial, sans-serif" font-size="64" font-weight="bold" fill="#ffffff">Güvenilir Sağlık Çözümleri</text>
  <text x="960" y="620" text-anchor="middle" font-family="Arial, sans-serif" font-size="26" fill="rgba(255,255,255,0.5)">Her zaman yanınızdayız</text>
  <rect x="760" y="680" width="400" height="4" rx="2" fill="url(#accent2)" opacity="0.5"/>
</svg>
